<?xml version="1.0" standalone="no"?>
<!DOCTYPE svg PUBLIC "-//W3C//DTD SVG 20010904//EN"
 "http://www.w3.org/TR/2001/REC-SVG-20010904/DTD/svg10.dtd">
<svg version="1.0" xmlns="http://www.w3.org/2000/svg" width="100" height="100">
  <polygon points="50,5, 10,40, 15,100, 85,100, 90,40" style="fill:#F5F7F9;" />
  <!--<polyline points="92,40 50,2, 8,40" style="fill:none; stroke:#89CEF6; stroke-width: 2" />-->
  <polyline points="95,45 50,5, 5,45" style="fill:none; stroke:#159FFF; stroke-width: 5" />
  <circle cx="50" cy="100" r="20" stroke="C3E6FA" stroke-width="10px" fill="#C3E6FA" /><!-- r="88888888" -->
  <circle cx="50" cy="100" r="15" stroke="159FFF" stroke-width="10px" fill="#159FFF" /><!-- r="88888888" -->
  <!--<circle cx="50" cy="90" r="5" stroke="89CEF6" stroke-width="10px" fill="#89CEF6" />--><!-- r="88888888" -->
  <!--<circle cx="50" cy="90" r="3" stroke="89CEF6" stroke-width="10px" fill="#eee915" />--><!-- r="88888888" -->
  <circle cx="38" cy="50" r="3" stroke="159FFF" stroke-width="10px" fill="#159FFF" />
  <circle cx="30" cy="50" r="3" stroke="159FFF" stroke-width="10px" fill="#159FFF" />
  <circle cx="62" cy="50" r="3" stroke="159FFF" stroke-width="10px" fill="#159FFF" />
  <circle cx="70" cy="50" r="3" stroke="159FFF" stroke-width="10px" fill="#159FFF" />
  <circle cx="38" cy="58" r="3" stroke="159FFF" stroke-width="10px" fill="#159FFF" />
  <circle cx="30" cy="58" r="3" stroke="159FFF" stroke-width="10px" fill="#159FFF" />
  <circle cx="62" cy="58" r="3" stroke="159FFF" stroke-width="10px" fill="#159FFF" />
  <circle cx="70" cy="58" r="3" stroke="159FFF" stroke-width="10px" fill="#159FFF" />
  <circle cx="50" cy="88" r="5" stroke="FFF915" stroke-width="10px" fill="#FFF915" />
</svg>
